<svg width="16" height="16" viewBox="0 0 16 16" fill="none" xmlns="http://www.w3.org/2000/svg">
<g clip-path="url(#clip0_1_1467)">
<path d="M14.4 4.79999C13.96 4.79999 13.6 4.43999 13.6 3.99999C13.6 3.55999 13.96 3.19999 14.4 3.19999V2.39999H1.6V3.19999C2.04 3.19999 2.4 3.55999 2.4 3.99999C2.4 4.43999 2.04 4.79999 1.6 4.79999H0V10.4H1.6C2.04 10.4 2.4 10.76 2.4 11.2C2.4 11.64 2.04 12 1.6 12V12.8H14.4V12C13.96 12 13.6 11.64 13.6 11.2C13.6 10.76 13.96 10.4 14.4 10.4H16V4.79999H14.4ZM14.4 7.99999H13.6V8.79999H12V7.99999H9.128C8.96 8.46399 8.52 8.79999 8 8.79999C7.48 8.79999 7.04 8.46399 6.872 7.99999H4V8.79999H2.4V7.99999H1.6V7.19999H2.4V6.39999H4V7.19999H6.872C7.04 6.73599 7.48 6.39999 8 6.39999C8.52 6.39999 8.96 6.73599 9.128 7.19999H12V6.39999H13.6V7.19999H14.4V7.99999Z" fill="white"/>
</g>
<defs>
<clipPath id="clip0_1_1467">
<rect width="16" height="16" fill="white"/>
</clipPath>
</defs>
</svg>
