<svg width="16" height="16" viewBox="0 0 16 16" fill="none" xmlns="http://www.w3.org/2000/svg">
<g clip-path="url(#clip0_1_1463)">
<path d="M14.5455 7.27279C13.0909 7.27279 12.3636 5.09097 10.1818 5.09097C8 5.09097 8 6.54552 8 6.54552C8 6.54552 8 5.09097 5.81818 5.09097C3.63636 5.09097 2.90909 7.27279 1.45455 7.27279C0.727273 7.27279 0 6.54552 0 6.54552C0 6.54552 0.727273 10.1819 3.63636 10.1819C7.27273 10.1819 8 8.00006 8 8.00006C8 8.00006 8.72727 10.1819 12.3636 10.1819C15.2727 10.1819 16 6.54552 16 6.54552C16 6.54552 15.2727 7.27279 14.5455 7.27279Z" fill="white"/>
</g>
<defs>
<clipPath id="clip0_1_1463">
<rect width="16" height="16" fill="white"/>
</clipPath>
</defs>
</svg>
