<svg width="16" height="16" viewBox="0 0 16 16" fill="none" xmlns="http://www.w3.org/2000/svg">
<g clip-path="url(#clip0_1_1457)">
<path fill-rule="evenodd" clip-rule="evenodd" d="M0.418765 2.43555C0.0340956 3.0999 -0.0913672 3.88301 0.0665055 4.63428C0.224378 5.38555 0.654438 6.05192 1.27398 6.50524C1.89351 6.95856 2.65878 7.16682 3.4226 7.08996C4.18642 7.0131 4.89485 6.65655 5.41165 6.08889L6.19654 6.54222C6.21876 6.624 6.32721 6.64533 6.38321 6.58044C6.51713 6.42341 6.66528 6.28 6.82765 6.15022C7.08188 5.94578 7.09432 5.52 6.81165 5.35733L6.07832 4.93333C6.30766 4.20305 6.2598 3.41385 5.9439 2.71663C5.628 2.01941 5.06622 1.46307 4.36596 1.15397C3.66569 0.844865 2.87608 0.804688 2.14806 1.04112C1.42004 1.27755 0.804689 1.774 0.419654 2.43555M2.2241 5.53067C2.02028 5.41479 1.8414 5.25974 1.69776 5.07444C1.55411 4.88915 1.44853 4.67727 1.3871 4.45101C1.32567 4.22474 1.30961 3.98857 1.33983 3.75607C1.37005 3.52357 1.44596 3.29935 1.56319 3.09631C1.68041 2.89326 1.83665 2.71542 2.02289 2.573C2.20913 2.43059 2.42171 2.32642 2.64837 2.26649C2.87504 2.20656 3.11132 2.19206 3.34361 2.22382C3.5759 2.25559 3.79962 2.33298 4.00188 2.45155C4.40687 2.68898 4.70151 3.07695 4.8215 3.53081C4.94149 3.98467 4.8771 4.46757 4.64236 4.87412C4.40763 5.28068 4.02162 5.57788 3.56857 5.70089C3.11552 5.82389 2.6322 5.76269 2.2241 5.53067ZM7.96276 6.49955C7.61968 6.64418 7.31416 6.86527 7.06953 7.14595C6.8249 7.42663 6.64761 7.75948 6.55121 8.11911L6.19743 9.44L5.41165 9.89333C4.8939 9.32891 4.18619 8.97525 3.42397 8.90003C2.66176 8.82482 1.89857 9.03333 1.28049 9.48567C0.662403 9.938 0.23284 10.6024 0.0740121 11.3517C-0.0848154 12.1009 0.0382499 12.8825 0.419654 13.5467C0.803045 14.2113 1.4185 14.7108 2.14779 14.9492C2.87707 15.1876 3.66873 15.1481 4.37067 14.8383C5.07262 14.5285 5.63532 13.9703 5.95069 13.2708C6.26605 12.5714 6.31182 11.78 6.07921 11.0489L15.5725 5.568C15.6864 5.50189 15.7782 5.40353 15.8363 5.28532C15.8943 5.16712 15.9161 5.03436 15.8988 4.90381C15.8815 4.77326 15.8259 4.65076 15.739 4.55176C15.6522 4.45276 15.538 4.38171 15.4108 4.34755L14.7859 4.17955C14.261 4.03914 13.7043 4.07761 13.2037 4.28889L7.96276 6.49955ZM1.57343 12.88C1.45486 12.6777 1.37746 12.454 1.3457 12.2217C1.31394 11.9894 1.32844 11.7532 1.38837 11.5265C1.44829 11.2998 1.55246 11.0873 1.69488 10.901C1.83729 10.7148 2.01514 10.5585 2.21818 10.4413C2.42122 10.3241 2.64545 10.2482 2.87794 10.2179C3.11044 10.1877 3.34662 10.2038 3.57288 10.2652C3.79915 10.3267 4.01102 10.4322 4.19632 10.5759C4.38161 10.7195 4.53666 10.8984 4.65254 11.1022C4.88457 11.5103 4.94576 11.9936 4.82276 12.4467C4.69976 12.8997 4.40255 13.2858 3.996 13.5205C3.58944 13.7552 3.10655 13.8196 2.65269 13.6996C2.19883 13.5796 1.81085 13.285 1.57343 12.88Z" fill="white"/>
<path d="M10.2419 9.67119C10.1702 9.71255 10.1115 9.7731 10.0724 9.84603C10.0332 9.91895 10.0152 10.0014 10.0204 10.084C10.0256 10.1666 10.0537 10.2461 10.1016 10.3135C10.1496 10.381 10.2154 10.4338 10.2917 10.4659L13.2019 11.6934C13.7025 11.9047 14.2592 11.9432 14.7841 11.8027L15.4099 11.6347C15.537 11.6004 15.651 11.5291 15.7377 11.43C15.8243 11.3309 15.8797 11.2084 15.8968 11.0779C15.9139 10.9473 15.892 10.8147 15.8338 10.6966C15.7757 10.5785 15.6838 10.4803 15.5699 10.4143L12.4854 8.63297C12.4179 8.59396 12.3412 8.57343 12.2632 8.57343C12.1852 8.57343 12.1086 8.59396 12.041 8.63297L10.2419 9.67119Z" fill="white"/>
</g>
<defs>
<clipPath id="clip0_1_1457">
<rect width="16" height="16" fill="white"/>
</clipPath>
</defs>
</svg>
